<svg width="41" height="41" viewBox="0 0 41 41" fill="none" xmlns="http://www.w3.org/2000/svg">
<path d="M30.4223 0.954834C31.7923 0.954834 33.0826 1.21768 34.2933 1.74336C35.504 2.26905 36.5633 2.9859 37.4713 3.8939C38.3793 4.80191 39.0962 5.86125 39.6219 7.07192C40.1476 8.28259 40.4104 9.57291 40.4104 10.9429V30.919C40.4104 32.289 40.1476 33.5873 39.6219 34.8139C39.0962 36.0405 38.3793 37.1078 37.4713 38.0158C36.5633 38.9238 35.504 39.6406 34.2933 40.1663C33.0826 40.692 31.7923 40.9548 30.4223 40.9548H10.3985C9.02848 40.9548 7.73816 40.692 6.52749 40.1663C5.31681 39.6406 4.25747 38.9238 3.34947 38.0158C2.44146 37.1078 1.72462 36.0405 1.19893 34.8139C0.673244 33.5873 0.4104 32.289 0.4104 30.919V10.9429C0.4104 9.57291 0.673244 8.28259 1.19893 7.07192C1.72462 5.86125 2.44146 4.80191 3.34947 3.8939C4.25747 2.9859 5.31681 2.26905 6.52749 1.74336C7.73816 1.21768 9.02848 0.954834 10.3985 0.954834H30.4223ZM27.8895 9.70035H23.684C22.8556 9.70035 22.091 9.84372 21.3901 10.1305C20.6892 10.4172 20.0838 10.7916 19.5741 11.2535C19.0643 11.7155 18.6581 12.2491 18.3554 12.8545C18.0528 13.4598 17.9014 14.0651 17.9014 14.6705V17.2033H14.1738V22.1735H17.9014V32.2093H22.9194V22.1735H26.647V17.2033H22.9194V15.9608C22.9194 15.5466 23.0707 15.228 23.3734 15.005C23.676 14.782 23.9389 14.6705 24.1619 14.6705H27.8895V9.70035Z" fill="white"/>
</svg>
