<svg width="140" height="140" viewBox="0 0 140 140" fill="none" xmlns="http://www.w3.org/2000/svg">
<g id="Logo">
<path id="Rectangle 1" d="M0 8C0 3.58172 3.58172 0 8 0H132C136.418 0 140 3.58172 140 8V132C140 136.418 136.418 140 132 140H8C3.58172 140 0 136.418 0 132V8Z" fill="#F76900"/>
<path id="Vector" d="M103.419 92.25C103.952 91.6 104.218 90.825 104.218 89.925C104.218 89.025 103.952 88.225 103.419 87.525C102.935 86.775 102.21 86.4 101.242 86.4H95.1452V93.225H101.242C102.21 93.225 102.935 92.9 103.419 92.25ZM95.1452 105.75V113.1H101.895C103.008 113.1 103.831 112.725 104.363 111.975C104.944 111.175 105.234 110.3 105.234 109.35V109.275C105.234 108.325 104.919 107.5 104.29 106.8C103.71 106.1 102.911 105.75 101.895 105.75H95.1452ZM103.782 126H78.9597C78.4274 126 77.9677 125.8 77.5806 125.4C77.1935 125 77 124.525 77 123.975V75.525C77 74.975 77.1935 74.5 77.5806 74.1C77.9677 73.7 78.4274 73.5 78.9597 73.5H103.056C109.927 73.5 114.984 74.8 118.226 77.4C121.516 79.95 123.161 83.825 123.161 89.025V89.25C123.161 91.4 122.556 93.325 121.347 95.025C120.137 96.675 118.806 97.875 117.355 98.625C119.29 99.425 120.911 100.85 122.218 102.9C123.573 104.9 124.25 107.1 124.25 109.5C124.25 120.5 117.427 126 103.782 126Z" fill="white"/>
<path id="Vector_2" d="M43.9194 92.25C44.4516 91.6 44.7177 90.825 44.7177 89.925C44.7177 89.025 44.4516 88.225 43.9194 87.525C43.4355 86.775 42.7097 86.4 41.7419 86.4H35.6452V93.225H41.7419C42.7097 93.225 43.4355 92.9 43.9194 92.25ZM35.6452 105.75V113.1H42.3952C43.5081 113.1 44.3306 112.725 44.8629 111.975C45.4436 111.175 45.7339 110.3 45.7339 109.35V109.275C45.7339 108.325 45.4194 107.5 44.7903 106.8C44.2097 106.1 43.4113 105.75 42.3952 105.75H35.6452ZM44.2823 126H19.4597C18.9274 126 18.4677 125.8 18.0806 125.4C17.6935 125 17.5 124.525 17.5 123.975V75.525C17.5 74.975 17.6935 74.5 18.0806 74.1C18.4677 73.7 18.9274 73.5 19.4597 73.5H43.5565C50.4274 73.5 55.4839 74.8 58.7258 77.4C62.0161 79.95 63.6613 83.825 63.6613 89.025V89.25C63.6613 91.4 63.0565 93.325 61.8468 95.025C60.6371 96.675 59.3065 97.875 57.8548 98.625C59.7903 99.425 61.4113 100.85 62.7177 102.9C64.0726 104.9 64.75 107.1 64.75 109.5C64.75 120.5 57.9274 126 44.2823 126Z" fill="white"/>
<path id="Vector_3" d="M106.24 14H120.531C121.066 14 121.528 14.1972 121.917 14.5916C122.306 14.9859 122.5 15.4542 122.5 15.9965V45.7218C122.5 52.6232 120.385 57.8239 116.156 61.3239C111.927 64.7746 106.167 66.5 98.875 66.5C91.6319 66.5 85.8715 64.7746 81.5938 61.3239C77.3646 57.8732 75.25 52.6725 75.25 45.7218V15.9965C75.25 15.4542 75.4444 14.9859 75.8333 14.5916C76.2222 14.1972 76.684 14 77.2188 14H91.5104C92.0451 14 92.5069 14.1972 92.8958 14.5916C93.2847 14.9859 93.4792 15.4542 93.4792 15.9965V45.9437C93.4792 49.7394 95.2778 51.6373 98.875 51.6373C102.472 51.6373 104.271 49.7394 104.271 45.9437V15.9965C104.271 15.4542 104.465 14.9859 104.854 14.5916C105.243 14.1972 105.705 14 106.24 14Z" fill="white"/>
<path id="Vector_4" d="M48.2448 14H62.7516C63.2944 14 63.7631 14.2 64.1579 14.6C64.5526 15 64.75 15.475 64.75 16.025V64.475C64.75 65.025 64.5526 65.5 64.1579 65.9C63.7631 66.3 63.2944 66.5 62.7516 66.5H48.2448C47.702 66.5 47.2332 66.3 46.8385 65.9C46.4438 65.5 46.2464 65.025 46.2464 64.475V48.275H36.0036V64.475C36.0036 65.025 35.8062 65.5 35.4115 65.9C35.0168 66.3 34.548 66.5 34.0052 66.5H19.4984C18.9556 66.5 18.4869 66.325 18.0921 65.975C17.6974 65.575 17.5 65.075 17.5 64.475V16.025C17.5 15.475 17.6974 15 18.0921 14.6C18.4869 14.2 18.9556 14 19.4984 14H34.0052C34.548 14 35.0168 14.2 35.4115 14.6C35.8062 15 36.0036 15.475 36.0036 16.025V31.775H46.2464V16.025C46.2464 15.475 46.4438 15 46.8385 14.6C47.2332 14.2 47.702 14 48.2448 14Z" fill="white"/>
</g>
</svg>
